<svg xmlns="http://www.w3.org/2000/svg" xmlns:xlink="http://www.w3.org/1999/xlink">
<style>:root svg:not(:target) {display: none}</style>
<svg id="angle-10" viewBox="0 0 10 10"><g fill="none"><path d="M10 10C4.47715 10 0 5.52285 0 0V10H10Z" fill="white"/></g></svg>
<svg id="angle-18" viewBox="0 0 18 18"><g fill="none"><path d="M18 18C8.05888 18 0 9.94112 0 0V18H18Z" fill="white"/></g></svg>
<svg id="angle-20" viewBox="0 0 20 20"><g fill="none"><path d="M20 20C8.95431 20 0 11.0457 0 0V20H20Z" fill="white"/></g></svg>
<svg id="angle-26" viewBox="0 0 26 26"><g fill="none"><path d="M26 0C11.6406 0 0 11.6406 0 26V0H26Z" fill="white"/></g></svg>
<svg id="icon-star" viewBox="0 0 18 22"><g fill="none"><path d="M9 0L12.0138 5.47476L18 5.5L15.0275 11L18 16.5L12.0138 16.5252L9 22L5.98623 16.5252L0 16.5L2.97246 11L0 5.5L5.98623 5.47476L9 0Z" fill="white"/></g></svg>
</svg>

